<svg width="253" height="296" viewBox="0 0 253 296" fill="none" xmlns="http://www.w3.org/2000/svg">
<path d="M204.496 95.6706C204.496 145.981 168.969 185.362 126.764 185.362C84.5582 185.362 49.0312 145.981 49.0312 95.6706C49.0312 45.3606 84.5582 5.97941 126.764 5.97941C168.969 5.97941 204.496 45.3606 204.496 95.6706Z" stroke="#2573FA" stroke-width="11.9588"/>
<path d="M89.8098 47.5164C62.2165 56.6051 54.6184 67.7135 52.6188 71.753L53.8185 64.5934V59.5441L70.6145 37.3273C96.5282 23.5932 123.002 25.5456 132.999 28.2386C147.396 31.4701 158.193 38.4277 164.192 42.3766C172.59 51.5558 162.457 48.9624 158.193 46.5066C135.399 33.3784 129 38.3371 117.403 38.3371L123.402 41.3667C138.998 49.4455 123.402 48.5263 121.002 47.5164C119.083 46.7085 98.2078 44.3963 89.8098 47.5164Z" fill="#2573FA" stroke="#2573FA" stroke-width="2.39177"/>
<path d="M200.029 117.197C199.516 118.299 198.834 119.605 197.977 121.043L180.894 153.073C139.756 177.947 112.413 161.444 100.77 153.073C90.8871 147.094 92.7977 143.506 94.7908 141.114C116.795 157.378 131.547 155.863 136.331 153.073L130.381 144.574C129.69 143.586 130.75 142.275 131.879 142.699C169.303 156.761 190.421 133.726 197.977 121.043L200.029 117.197Z" fill="#2573FA"/>
<path d="M200.029 117.197L201.113 117.7L198.973 116.634L200.029 117.197ZM131.879 142.699L132.299 141.579L131.879 142.699ZM130.381 144.574L129.401 145.26V145.26L130.381 144.574ZM136.331 153.073L136.933 154.106L138.055 153.451L137.31 152.387L136.331 153.073ZM94.7908 141.114L95.5017 140.152C94.9923 139.776 94.2777 139.862 93.8721 140.349L94.7908 141.114ZM100.77 153.073L101.468 152.102L101.43 152.074L101.389 152.05L100.77 153.073ZM180.894 153.073L181.513 154.096L181.795 153.926L181.95 153.636L180.894 153.073ZM198.944 116.693C198.45 117.756 197.787 119.025 196.95 120.431L199.004 121.655C199.881 120.184 200.583 118.843 201.113 117.7L198.944 116.693ZM196.949 120.431C193.245 126.649 186.224 135.384 175.583 140.836C164.989 146.264 150.705 148.495 132.299 141.579L131.458 143.818C150.477 150.964 165.464 148.709 176.674 142.965C187.837 137.245 195.152 128.121 199.004 121.655L196.949 120.431ZM129.401 145.26L135.351 153.759L137.31 152.387L131.361 143.888L129.401 145.26ZM135.728 152.04C131.549 154.478 117.339 156.293 95.5017 140.152L94.08 142.076C116.251 158.463 131.545 157.249 136.933 154.106L135.728 152.04ZM93.8721 140.349C92.8389 141.588 91.5027 143.501 92.17 146.051C92.8047 148.476 95.1639 151.079 100.151 154.096L101.389 152.05C96.4935 149.088 94.8665 146.907 94.4839 145.445C94.134 144.109 94.7497 143.032 95.7095 141.88L93.8721 140.349ZM100.072 154.044C105.954 158.273 115.883 164.617 129.59 166.722C143.324 168.831 160.726 166.666 181.513 154.096L180.276 152.05C159.925 164.355 143.085 166.375 129.953 164.358C116.793 162.337 107.229 156.244 101.468 152.102L100.072 154.044ZM181.95 153.636L199.032 121.606L196.922 120.481L179.839 152.51L181.95 153.636ZM199.032 121.606L201.084 117.759L198.973 116.634L196.922 120.481L199.032 121.606ZM132.299 141.579C131.178 141.158 130.106 141.621 129.515 142.358C128.92 143.1 128.701 144.26 129.401 145.26L131.361 143.888C131.352 143.876 131.353 143.873 131.355 143.881C131.357 143.887 131.357 143.894 131.357 143.897C131.357 143.901 131.358 143.883 131.38 143.855C131.402 143.828 131.425 143.816 131.434 143.813C131.436 143.813 131.437 143.813 131.437 143.813C131.437 143.813 131.437 143.813 131.437 143.813C131.437 143.813 131.439 143.813 131.441 143.813C131.444 143.814 131.45 143.815 131.458 143.818L132.299 141.579Z" fill="#2573FA"/>
<path fill-rule="evenodd" clip-rule="evenodd" d="M162.008 90.1733C162.858 87.7195 163.293 85.0884 163.288 82.4321C163.289 78.436 162.302 74.529 160.451 71.2042C158.599 67.8794 155.967 65.286 152.886 63.7514C149.805 62.2167 146.413 61.8096 143.139 62.5814C139.864 63.3533 136.855 65.2695 134.489 68.0881L130.678 72.3383L126.893 68.1021C123.723 64.3108 119.425 62.1826 114.945 62.1859C110.465 62.1892 106.169 64.3236 103.003 68.1195C99.8368 71.9155 98.0597 77.062 98.0624 82.427C98.065 87.5353 99.6809 92.4431 102.572 96.1738H113.49L117.371 89.8529C117.646 89.4048 118.128 89.1243 118.653 89.1056C119.179 89.087 119.678 89.3327 119.985 89.7602L123.166 94.2006L127.619 78.8401C127.819 78.1495 128.463 77.6833 129.181 77.7085C129.9 77.7337 130.509 78.2439 130.661 78.9468L135.538 101.604L139.687 91.657C139.889 91.1708 140.323 90.8187 140.84 90.7196C141.357 90.6205 141.89 90.7876 142.258 91.1646L147.15 96.1738H158.786C160.149 94.4213 161.241 92.3895 162.008 90.1733ZM156.21 99.313H146.489C146.066 99.313 145.661 99.1424 145.366 98.84L141.67 95.0558L136.507 107.436C136.243 108.07 135.598 108.458 134.915 108.395C134.232 108.333 133.668 107.833 133.524 107.163L128.901 85.6901L125.28 98.1804C125.113 98.7578 124.63 99.1889 124.038 99.2904C123.445 99.392 122.847 99.1461 122.497 98.6574L118.809 93.51L115.706 98.5647C115.42 99.0296 114.914 99.313 114.368 99.313H105.145L129.018 128.323C129.235 128.587 129.493 128.796 129.778 128.939C130.063 129.082 130.369 129.155 130.678 129.155C130.987 129.155 131.292 129.082 131.577 128.939C131.862 128.796 132.121 128.587 132.337 128.323L156.21 99.313Z" fill="#D01012"/>
<path d="M4.0361 274.341V211.72H21.0367V260.643H46.3541V274.341H4.0361Z" fill="#D01012"/>
<path d="M84.2919 243.031V255.751H54.9384V243.031H84.2919Z" fill="white"/>
<path d="M127.848 231.289C127.685 229.251 126.921 227.661 125.555 226.52C124.21 225.378 122.161 224.807 119.409 224.807C117.656 224.807 116.219 225.021 115.098 225.449C113.997 225.857 113.182 226.418 112.652 227.131C112.122 227.845 111.846 228.66 111.826 229.577C111.785 230.331 111.918 231.014 112.224 231.626C112.55 232.217 113.059 232.757 113.752 233.246C114.445 233.715 115.332 234.143 116.413 234.531C117.493 234.918 118.777 235.264 120.265 235.57L125.402 236.671C128.867 237.405 131.833 238.373 134.3 239.576C136.766 240.778 138.784 242.195 140.354 243.826C141.924 245.436 143.075 247.25 143.809 249.268C144.563 251.287 144.951 253.488 144.971 255.873C144.951 259.991 143.921 263.476 141.883 266.33C139.844 269.184 136.929 271.355 133.138 272.843C129.367 274.331 124.831 275.075 119.531 275.075C114.089 275.075 109.339 274.27 105.283 272.66C101.247 271.049 98.1074 268.572 95.8651 265.229C93.6432 261.866 92.5221 257.565 92.5017 252.326H108.646C108.748 254.242 109.227 255.853 110.083 257.157C110.939 258.462 112.142 259.45 113.691 260.123C115.261 260.796 117.126 261.132 119.287 261.132C121.101 261.132 122.62 260.908 123.843 260.459C125.066 260.011 125.993 259.389 126.625 258.594C127.257 257.799 127.583 256.892 127.604 255.873C127.583 254.915 127.267 254.079 126.656 253.366C126.065 252.632 125.086 251.98 123.72 251.409C122.355 250.818 120.51 250.267 118.186 249.758L111.948 248.412C106.404 247.21 102.031 245.202 98.8311 242.389C95.6511 239.555 94.0713 235.692 94.0917 230.8C94.0713 226.825 95.1313 223.35 97.2717 220.374C99.4324 217.377 102.419 215.043 106.231 213.372C110.063 211.7 114.456 210.864 119.409 210.864C124.464 210.864 128.837 211.71 132.526 213.402C136.216 215.094 139.06 217.479 141.057 220.557C143.075 223.615 144.095 227.192 144.115 231.289H127.848ZM168.439 211.72V274.341H151.438V211.72H168.439ZM176.496 211.72H197.654L212.209 247.189H212.943L227.497 211.72H248.656V274.341H232.023V238.139H231.533L217.59 273.852H207.561L193.618 237.894H193.129V274.341H176.496V211.72Z" fill="#2573FA"/>
</svg>
